<svg width="271" height="262" viewBox="0 0 271 262" fill="none" xmlns="http://www.w3.org/2000/svg">
<path d="M112.286 184.629L148.434 191.011L158.052 224.638L122.446 220.153L112.286 184.629Z" fill="#FFD100"/>
<path d="M175.741 166.479L148.434 191.011L158.052 224.637L185.902 202.003L175.741 166.479Z" fill="#05F2AF"/>
<path d="M148.853 192.475L112.607 185.752L139.929 161.277L176.062 167.602L148.853 192.475Z" fill="#F23064"/>
<path d="M139.929 161.277L148.461 191.106M139.929 161.277L112.313 184.724M139.929 161.277L175.768 166.574M148.461 191.106L112.313 184.724M148.461 191.106L175.768 166.574M148.461 191.106L158.079 224.732M112.313 184.724L122.473 220.248L158.079 224.732M175.768 166.574L185.929 202.098L158.079 224.732" stroke="black" stroke-width="4"/>
<circle cx="106.212" cy="44.396" r="27.707" transform="rotate(29.8642 106.212 44.396)" fill="black" stroke="black" stroke-width="3"/>
<circle cx="103.105" cy="40.7833" r="28.007" transform="rotate(29.8642 103.105 40.7833)" fill="#FA733E" stroke="black" stroke-width="2.4"/>
<path d="M205.904 66.375L209.139 57.8379L211.176 66.7372L211.594 68.5648L212.879 67.1992L219.135 60.5499L217.611 69.5513L217.299 71.3999L219.008 70.63L227.332 66.8807L222.48 74.6138L221.484 76.202L223.357 76.1449L232.483 75.8664L225.04 81.154L223.512 82.2402L225.266 82.9044L233.802 86.1392L224.903 88.1763L223.076 88.5946L224.441 89.8797L231.09 96.1352L222.089 94.6116L220.24 94.2991L221.01 96.0084L224.759 104.332L217.027 99.4804L215.438 98.4837L215.495 100.358L215.774 109.483L210.486 102.041L209.4 100.512L208.736 102.266L205.501 110.802L203.464 101.903L203.046 100.076L201.761 101.441L195.505 108.091L197.029 99.0893L197.341 97.2404L195.632 98.0104L187.308 101.76L192.16 94.0266L193.157 92.4386L191.283 92.4954L182.157 92.774L189.6 87.4863L191.128 86.4004L189.375 85.736L180.838 82.5012L189.737 80.464L191.565 80.0457L190.199 78.7609L183.55 72.5053L192.551 74.0288L194.4 74.3416L193.63 72.6321L189.88 64.3081L197.614 69.1603L199.202 70.1569L199.145 68.2828L198.866 59.1576L204.154 66.5999L205.24 68.1282L205.904 66.375Z" fill="#380A53" stroke="black" stroke-width="2.4"/>
<path d="M41.2625 201.958C47.39 205.517 51.3081 211.42 52.5405 217.875C46.3224 220.004 39.2537 219.525 33.1262 215.967C26.9988 212.408 23.0808 206.505 21.8483 200.049C28.0664 197.921 35.1351 198.399 41.2625 201.958Z" fill="#7FBC8C" stroke="black" stroke-width="4"/>
<path d="M68.8613 206.49C65.3024 212.618 59.3994 216.536 52.9439 217.768C50.8155 211.55 51.2939 204.481 54.8528 198.354C58.4114 192.227 64.3144 188.309 70.7699 187.076C72.8985 193.294 72.4203 200.363 68.8613 206.49Z" fill="#7FBC8C" stroke="black" stroke-width="4"/>
</svg>
