<svg width="278" height="253" viewBox="0 0 278 253" fill="none" xmlns="http://www.w3.org/2000/svg">
<g clip-path="url(#clip0_555_1895)">
<path opacity="0.21" fill-rule="evenodd" clip-rule="evenodd" d="M218.969 102.328L222.37 91.2593L209.066 87.1707L218.969 102.328ZM196.545 83.3226L215.767 112.747L212.565 123.165L184.023 79.4741L196.545 83.3226ZM171.5 75.6257L158.978 71.7772L206.161 144.002L209.363 133.584L171.5 75.6257ZM202.959 154.421L146.456 67.929L133.934 64.0807L199.757 164.84L202.959 154.421ZM196.555 175.258L121.412 60.2324L108.89 56.384L193.353 185.677L196.555 175.258ZM190.152 196.095L96.3681 52.5356L89.5537 50.4414L88.0944 55.1899L182.702 200.011L188.409 201.765L190.152 196.095ZM170.18 196.163L84.8925 65.6085L81.6905 76.0274L157.658 192.314L170.18 196.163ZM145.135 188.466L78.4886 86.446L75.2867 96.8646L132.613 184.617L145.135 188.466ZM120.091 180.769L72.0849 107.283L68.883 117.702L107.569 176.921L120.091 180.769ZM95.047 173.072L65.681 128.12L62.479 138.539L82.525 169.224L95.047 173.072ZM70.0029 165.376L59.2773 148.957L55.5925 160.947L70.0029 165.376Z" fill="white"/>
</g>
<g clip-path="url(#clip1_555_1895)">
<path d="M185.333 40.7733L171.854 36.123L189.775 72.7714L153.069 90.5739L166.549 95.2242L203.255 77.4217L185.333 40.7733Z" fill="#FFD100" stroke="black" stroke-width="4"/>
<path d="M171.676 36.0619L158.196 31.4116L176.118 68.0599L139.412 85.8625L152.891 90.5128L189.598 72.7102L171.676 36.0619Z" fill="white" stroke="black" stroke-width="4"/>
</g>
<path d="M92.6963 145.521L94.6059 142.377L94.9355 146.041C95.5171 152.512 99.1386 158.323 104.692 161.696L107.836 163.605L104.172 163.935C97.701 164.517 91.8903 168.138 88.5175 173.692L86.6078 176.836L86.2784 173.172C85.6965 166.701 82.0752 160.89 76.5215 157.517L73.3774 155.607L77.0412 155.278C83.5128 154.696 89.3233 151.075 92.6963 145.521Z" fill="#05F283" stroke="black" stroke-width="3"/>
<path d="M203.299 210.497L183.274 171.208L169.441 219.163L203.299 210.497Z" fill="#FFD100"/>
<path d="M144.295 193.477L182.169 170.89L168.336 218.844L144.295 193.477Z" fill="#F23064"/>
<path d="M182.611 171.017L202.636 210.307L168.778 218.972M182.611 171.017L144.295 193.477L168.778 218.972M182.611 171.017L168.778 218.972" stroke="black" stroke-width="2.4"/>
<defs>
<clipPath id="clip0_555_1895">
<rect width="231.579" height="192.678" fill="white" transform="translate(56.6021) rotate(17.0835)"/>
</clipPath>
<clipPath id="clip1_555_1895">
<rect width="96" height="96" fill="white" transform="translate(146.308 7) rotate(19.0336)"/>
</clipPath>
</defs>
</svg>
