<svg width="201" height="201" viewBox="0 0 201 201" fill="none" xmlns="http://www.w3.org/2000/svg">
<rect width="201" height="201" fill="#343434"/>
<path d="M-10244 -4405C-10244 -4406.1 -10243.1 -4407 -10242 -4407H5224C5225.1 -4407 5226 -4406.1 5226 -4405V4013C5226 4014.1 5225.1 4015 5224 4015H-10242C-10243.1 4015 -10244 4014.1 -10244 4013V-4405Z" fill="#404040"/>
<rect width="1280" height="832" transform="translate(-92 -97)" fill="url(#paint0_radial_45_2)"/>
<path d="M105.802 64.7591L110.648 56.7812L111.484 66.0778C112.96 82.4993 122.149 97.2431 136.241 105.802L144.219 110.647L134.922 111.484C118.501 112.96 103.757 122.149 95.1986 136.241L90.3529 144.219L89.517 134.922C88.0403 118.501 78.8516 103.757 64.7592 95.1984L56.7813 90.3527L66.078 89.5167C82.4995 88.0402 97.2432 78.8514 105.802 64.7591Z" fill="#05F283" stroke="black" stroke-width="3"/>
<path d="M165.305 65.9822L166.709 63.6696L166.952 66.3645C167.38 71.1248 170.044 75.3988 174.129 77.8799L176.441 79.2845L173.746 79.5269C168.986 79.9548 164.712 82.6186 162.231 86.7036L160.826 89.0162L160.584 86.3213C160.156 81.5611 157.492 77.287 153.407 74.8061L151.095 73.4014L153.79 73.1591C158.55 72.731 162.824 70.0674 165.305 65.9822Z" fill="#05F283" stroke="black" stroke-width="1.5"/>
<path d="M-10242 -4406H5224V-4408H-10242V-4406ZM5225 -4405V4013H5227V-4405H5225ZM5224 4014H-10242V4016H5224V4014ZM-10243 4013V-4405H-10245V4013H-10243ZM-10242 4014C-10242.6 4014 -10243 4013.55 -10243 4013H-10245C-10245 4014.66 -10243.7 4016 -10242 4016V4014ZM5225 4013C5225 4013.55 5224.55 4014 5224 4014V4016C5225.66 4016 5227 4014.66 5227 4013H5225ZM5224 -4406C5224.55 -4406 5225 -4405.55 5225 -4405H5227C5227 -4406.66 5225.66 -4408 5224 -4408V-4406ZM-10242 -4408C-10243.7 -4408 -10245 -4406.66 -10245 -4405H-10243C-10243 -4405.55 -10242.6 -4406 -10242 -4406V-4408Z" fill="white" fill-opacity="0.1"/>
<defs>
<radialGradient id="paint0_radial_45_2" cx="0" cy="0" r="1" gradientUnits="userSpaceOnUse" gradientTransform="translate(622.5 433) rotate(88.3884) scale(622.246 751.378)">
<stop stop-color="#FBE0FF"/>
<stop offset="1" stop-color="white"/>
</radialGradient>
</defs>
</svg>
