<svg width="203" height="203" viewBox="0 0 203 203" fill="none" xmlns="http://www.w3.org/2000/svg">
<g id="Frame-102 1">
<path id="Vector" d="M46.4736 88.5767L100.171 98.057L114.459 148.007L61.5672 141.346L46.4736 88.5767Z" fill="#FFD100"/>
<path id="Vector_2" d="M140.734 61.6156L100.171 98.0571L114.458 148.008L155.827 114.385L140.734 61.6156Z" fill="#05F2AF"/>
<path id="Vector_3" d="M100.793 100.232L46.9505 90.2447L87.5375 53.8876L141.211 63.2835L100.793 100.232Z" fill="#F23064"/>
<path id="Vector_4" d="M87.5375 53.8876L100.212 98.1982M87.5375 53.8876L46.5138 88.7178M87.5375 53.8876L140.774 61.7567M100.212 98.1982L46.5138 88.7178M100.212 98.1982L140.774 61.7567M100.212 98.1982L114.499 148.148M46.5138 88.7178L61.6074 141.488L114.499 148.148M140.774 61.7567L155.868 114.526L114.499 148.148" stroke="black" stroke-width="4"/>
</g>
</svg>
